<svg width="100" height="101" viewBox="0 0 100 101" fill="none" xmlns="http://www.w3.org/2000/svg">
<g clip-path="url(#clip0_2433_4034)">
<path d="M20.8333 38.4935V30.1602H58.3333V63.4935" stroke="#333333" stroke-width="4" stroke-linecap="round" stroke-linejoin="round"/>
<path d="M29.1666 63.4935H20.8333V55.1602" stroke="#333333" stroke-width="4" stroke-linecap="round" stroke-linejoin="round"/>
<path d="M58.3333 34.3262H70.8333V46.8262L79.1666 50.9928V63.4928H70.8333" stroke="#333333" stroke-width="4" stroke-linecap="round" stroke-linejoin="round"/>
<path d="M35.4167 69.7432C38.8685 69.7432 41.6667 66.9449 41.6667 63.4932C41.6667 60.0414 38.8685 57.2432 35.4167 57.2432C31.9649 57.2432 29.1667 60.0414 29.1667 63.4932C29.1667 66.9449 31.9649 69.7432 35.4167 69.7432Z" stroke="#333333" stroke-width="4" stroke-linecap="round" stroke-linejoin="round"/>
<path d="M64.5833 69.7432C68.0351 69.7432 70.8333 66.9449 70.8333 63.4932C70.8333 60.0414 68.0351 57.2432 64.5833 57.2432C61.1315 57.2432 58.3333 60.0414 58.3333 63.4932C58.3333 66.9449 61.1315 69.7432 64.5833 69.7432Z" stroke="#333333" stroke-width="4" stroke-linecap="round" stroke-linejoin="round"/>
<path d="M41.6667 63.4932H58.3334" stroke="#333333" stroke-width="4" stroke-linecap="round" stroke-linejoin="round"/>
<path d="M16.6667 38.4932H41.6667" stroke="#333333" stroke-width="4" stroke-linecap="round" stroke-linejoin="round"/>
<path d="M16.6667 46.8262H33.3334" stroke="#333333" stroke-width="4" stroke-linecap="round" stroke-linejoin="round"/>
<path d="M16.6667 55.1602H25" stroke="#333333" stroke-width="4" stroke-linecap="round" stroke-linejoin="round"/>
</g>
<defs>
<clipPath id="clip0_2433_4034">
<rect width="100" height="100" fill="white" transform="translate(0 0.993164)"/>
</clipPath>
</defs>
</svg>
