<svg width="37" height="29" viewBox="0 0 37 29" fill="none" xmlns="http://www.w3.org/2000/svg">
<path d="M2.95455 27.6246H8.68182V13.7155L0.5 7.5791V25.17C0.5 26.5261 1.59841 27.6246 2.95455 27.6246Z" fill="#011432"/>
<path d="M28.3182 27.6246H34.0455C35.4016 27.6246 36.5001 26.5261 36.5001 25.17V7.5791L28.3182 13.7155V27.6246Z" fill="#011432"/>
<path d="M28.3182 3.07932V13.7157L36.5001 7.57932V4.3066C36.5001 1.27319 33.0371 -0.459313 30.6091 1.36114L28.3182 3.07932Z" fill="#011432"/>
<path fill-rule="evenodd" clip-rule="evenodd" d="M8.68176 13.7155V3.0791L18.4999 10.4427L28.3181 3.0791V13.7155L18.4999 21.0791L8.68176 13.7155Z" fill="#011432"/>
<path d="M0.5 4.3066V7.57932L8.68182 13.7157V3.07932L6.39091 1.36114C3.96296 -0.459313 0.5 1.27319 0.5 4.3066Z" fill="#011432"/>
</svg>
