<svg width="257" height="72" viewBox="0 0 257 72" fill="none" xmlns="http://www.w3.org/2000/svg">
<path d="M254.87 64.5717C254.87 65.4899 254.682 66.3991 254.316 67.2473C253.951 68.0955 253.414 68.8661 252.739 69.515C252.063 70.164 251.261 70.6785 250.378 71.0292C249.495 71.3799 248.549 71.5599 247.594 71.559H9.4757C7.54574 71.5609 5.69399 70.8259 4.3277 69.5156C2.96141 68.2052 2.19246 66.4269 2.18994 64.5717V8.84997C2.19246 6.99387 2.96111 5.21459 4.32713 3.90282C5.69314 2.59104 7.54486 1.854 9.4757 1.85352H247.592C248.548 1.85352 249.494 2.0345 250.377 2.38612C251.26 2.73775 252.062 3.25314 252.738 3.90284C253.414 4.55254 253.95 5.32384 254.315 6.17268C254.681 7.02152 254.869 7.93127 254.868 8.84997L254.87 64.5717Z" fill="white"/>
<path d="M-nan -nanL247.529 62.2341H9.4725C7.09563 62.2336 4.81603 61.466 3.1339 60.0995C1.45177 58.733 0.504523 56.8792 0.5 54.9451L0.5 7.78986C0.503516 5.85473 1.45014 3.99975 3.13221 2.63184C4.81429 1.26393 7.09445 0.494797 9.4725 0.493164L247.528 0.493164C249.905 0.495612 252.185 1.26501 253.867 2.63274C255.549 4.00047 256.495 5.85498 256.5 7.78986V54.9451C256.504 58.9655 252.472 62.2341 247.529 62.2341L-nan -nanZ" fill="#FDFDFC"/>
<path d="M254.869 54.29C254.869 55.0577 254.681 55.8179 254.315 56.527C253.95 57.2362 253.414 57.8805 252.738 58.423C252.062 58.9655 251.26 59.3957 250.377 59.689C249.494 59.9822 248.548 60.1327 247.593 60.1319H9.47484C7.54488 60.1335 5.69314 59.519 4.32685 58.4235C2.96056 57.3279 2.1916 55.8411 2.18909 54.29V7.70301C2.1916 6.15119 2.96025 4.6636 4.32627 3.56687C5.69229 2.47014 7.54401 1.85392 9.47484 1.85352H247.591C248.547 1.85352 249.493 2.00483 250.376 2.29881C251.259 2.5928 252.061 3.02369 252.737 3.56689C253.413 4.11008 253.949 4.75494 254.314 5.46462C254.68 6.17431 254.868 6.93492 254.868 7.70301L254.869 54.29Z" fill="#FDFDFC"/>
<path d="M57.6778 30.6722C57.6227 25.7561 62.6861 23.3645 62.9177 23.2531C60.05 19.8929 55.6053 19.4338 54.0434 19.3972C50.3104 19.0815 46.6893 21.1925 44.7877 21.1925C42.8481 21.1925 39.9198 19.4277 36.7637 19.4796C32.7024 19.5299 28.9029 21.4197 26.8191 24.3544C22.5186 30.3381 25.726 39.1314 29.8461 43.9681C31.9072 46.3384 34.3155 48.9818 37.4678 48.8887C40.5518 48.7881 41.7038 47.31 45.4254 47.31C49.1129 47.31 50.1946 48.8887 53.4095 48.8292C56.7194 48.7881 58.8032 46.4498 60.7921 44.0597C63.1739 41.3462 64.1304 38.6708 64.1683 38.5335C64.0924 38.5122 57.7423 36.5628 57.6778 30.6722ZM51.6047 16.2154C53.2634 14.5483 54.3983 12.2802 54.0833 9.97852C51.6825 10.0639 48.6802 11.3131 46.9512 12.9437C45.4216 14.3805 44.0552 16.7356 44.4082 18.9503C47.105 19.112 49.8739 17.8567 51.6047 16.2154Z" fill="#011432"/>
<path d="M102.347 48.5488H98.0369L95.676 42.5864H87.4698L85.2209 48.5488H81.0248L89.157 28.2502H94.1786L102.347 48.5488ZM94.9643 40.0849L92.8293 34.7845C92.6034 34.2431 92.1783 32.9679 91.5558 30.9606H91.4799C91.2294 31.824 90.8289 33.0991 90.2805 34.7845L88.1815 40.0849H94.9643ZM123.219 41.0504C123.219 43.5397 122.378 45.5074 120.695 46.9518C119.188 48.2376 117.315 48.8798 115.081 48.8798C112.669 48.8798 110.935 48.1888 109.881 46.8039V54.4837H105.835V38.7229C105.835 37.1594 105.784 35.5563 105.685 33.9121H109.244L109.469 36.232H109.545C110.895 34.4841 112.942 33.6101 115.69 33.6101C117.839 33.6101 119.632 34.2919 121.067 35.657C122.5 37.0252 123.219 38.822 123.219 41.0504ZM119.097 41.1694C119.097 39.7448 118.699 38.5703 117.898 37.6445C117.023 36.682 115.848 36.2 114.375 36.2C113.377 36.2 112.47 36.4685 111.659 36.9977C110.847 37.5316 110.316 38.2287 110.067 39.092C109.956 39.4148 109.893 39.7471 109.879 40.0819V42.5239C109.879 43.587 110.285 44.4854 111.098 45.2206C111.91 45.9527 112.965 46.3203 114.263 46.3203C115.787 46.3203 116.973 45.846 117.822 44.9049C118.672 43.9607 119.097 42.7161 119.097 41.1694ZM144.165 41.0504C144.165 43.5397 143.325 45.5074 141.641 46.9518C140.133 48.2376 138.261 48.8798 136.026 48.8798C133.614 48.8798 131.879 48.1888 130.826 46.8039V54.4837H126.779V38.7229C126.779 37.1594 126.728 35.5563 126.63 33.9121H130.188L130.414 36.232H130.49C131.837 34.4841 133.885 33.6101 136.635 33.6101C138.781 33.6101 140.575 34.2919 142.013 35.657C143.444 37.0252 144.165 38.822 144.165 41.0504ZM140.041 41.1694C140.041 39.7448 139.641 38.5703 138.84 37.6445C137.965 36.682 136.794 36.2 135.322 36.2C134.323 36.2 133.416 36.4685 132.602 36.9977C131.79 37.5316 131.26 38.2287 131.012 39.092C130.888 39.4946 130.822 39.8226 130.822 40.0819V42.5239C130.822 43.587 131.23 44.4854 132.038 45.2206C132.851 45.9512 133.906 46.3203 135.208 46.3203C136.734 46.3203 137.92 45.846 138.766 44.9049C139.616 43.9607 140.041 42.7161 140.041 41.1694ZM167.585 42.8549C167.585 44.583 166.833 45.9878 165.34 47.0723C163.696 48.2559 161.402 48.8493 158.46 48.8493C155.742 48.8493 153.564 48.4283 151.92 47.5848L152.856 44.8744C154.63 45.7194 156.579 46.1403 158.701 46.1403C160.227 46.1403 161.413 45.8627 162.259 45.3121C163.108 44.76 163.537 44.0217 163.537 43.1004C163.537 42.2753 163.182 41.5843 162.485 41.0215C161.785 40.4602 160.627 39.937 159.001 39.4565C154.579 38.131 152.366 36.1924 152.366 33.6421C152.366 31.9765 153.148 30.6129 154.708 29.5467C156.268 28.482 158.337 27.9497 160.91 27.9497C163.208 27.9497 165.123 28.2715 166.643 28.9137L165.628 31.5647C164.197 30.9423 162.582 30.6312 160.775 30.6312C159.348 30.6312 158.228 30.9134 157.427 31.4747C156.754 31.9765 156.412 32.5881 156.412 33.3142C156.412 34.1149 156.801 34.78 157.576 35.3016C158.247 35.7821 159.473 36.3053 161.246 36.8666C163.421 37.5713 165.019 38.3919 166.042 39.3345C167.072 40.2771 167.585 41.4531 167.585 42.8549ZM180.997 36.3525H176.537V43.4589C176.537 45.2664 177.322 46.1678 178.898 46.1678C179.621 46.1678 180.22 46.119 180.695 46.0168L180.807 48.4862C180.01 48.7257 178.96 48.8462 177.66 48.8462C176.062 48.8462 174.813 48.4542 173.912 47.6702C173.014 46.8862 172.563 45.5729 172.563 43.7243V36.3464H169.906V33.906H172.563V31.226L176.537 30.2621V33.906H180.997V36.3525ZM201.079 41.1099C201.079 43.3597 200.279 45.2069 198.681 46.6513C197.009 48.1385 194.784 48.8798 192.012 48.8798C189.336 48.8798 187.208 48.1675 185.622 46.7444C184.035 45.3182 183.242 43.5214 183.242 41.354C183.242 39.0859 184.062 37.2281 185.696 35.7836C187.333 34.3376 189.539 33.6146 192.311 33.6146C194.984 33.6146 197.13 34.3285 198.755 35.7531C200.307 37.135 201.079 38.9196 201.079 41.1099ZM196.885 41.1847C196.885 39.8439 196.525 38.6939 195.802 37.7314C194.953 36.5691 193.739 35.988 192.165 35.988C190.545 35.988 189.301 36.5691 188.455 37.7314C187.73 38.6939 187.369 39.8638 187.369 41.2457C187.369 42.5879 187.73 43.7411 188.455 44.7005C189.33 45.8627 190.55 46.4439 192.131 46.4439C193.678 46.4439 194.891 45.8505 195.767 44.6715C196.511 43.6862 196.885 42.5285 196.885 41.1847ZM214.237 36.772C213.816 36.7109 213.389 36.6808 212.962 36.682C211.538 36.682 210.438 37.1121 209.663 37.9785C208.991 38.7412 208.654 39.7051 208.654 40.8689V48.5488H204.607V38.5215C204.611 36.985 204.572 35.4487 204.49 33.9136H208.014L208.162 36.714H208.274C208.703 35.7516 209.375 34.9752 210.297 34.3941C211.141 33.8863 212.167 33.6113 213.222 33.6101C213.596 33.6101 213.933 33.6314 214.233 33.6696L214.237 36.772ZM232.333 40.538C232.343 41.0323 232.293 41.5263 232.185 42.0129H220.046C220.092 43.4589 220.68 44.5662 221.807 45.3289C222.83 46.0092 224.153 46.3508 225.778 46.3508C227.575 46.3508 229.215 46.122 230.689 45.6599L231.323 47.9158C229.6 48.5198 227.565 48.8203 225.218 48.8203C222.394 48.8203 220.177 48.1522 218.564 46.8191C216.955 45.4845 216.148 43.6907 216.148 41.444C216.148 39.2384 216.898 37.4004 218.399 35.9346C219.97 34.3697 222.094 33.5872 224.766 33.5872C227.391 33.5872 229.378 34.3697 230.727 35.9346C231.796 37.1747 232.333 38.7122 232.333 40.538ZM228.475 39.6945C228.503 38.729 228.237 37.8977 227.689 37.1945C226.989 36.2885 225.911 35.837 224.466 35.837C223.144 35.837 222.066 36.2778 221.246 37.1625C220.572 37.8656 220.172 38.7106 220.048 39.6914L228.475 39.6945ZM86.3026 21.0737C85.1772 21.0737 84.2036 21.0295 83.3933 20.9547V11.141C84.5267 11.0003 85.672 10.9309 86.8188 10.9335C91.459 10.9335 93.596 12.7685 93.596 15.7596C93.596 19.2098 91.0719 21.0737 86.3026 21.0737ZM86.9821 12.1919C86.3558 12.1919 85.8225 12.2224 85.3803 12.2956V19.7558C85.6194 19.7863 86.0787 19.8001 86.724 19.8001C89.7643 19.8001 91.4951 18.409 91.4951 15.8038C91.4951 13.4808 89.9294 12.1919 86.9821 12.1919ZM100.255 21.1484C97.6403 21.1484 95.9455 19.5789 95.9455 17.4481C95.9455 15.2272 97.6763 13.644 100.403 13.644C102.981 13.644 104.713 15.1388 104.713 17.3306C104.713 19.5789 102.928 21.1484 100.255 21.1484ZM100.331 14.8124C98.8947 14.8124 97.9743 15.8923 97.9743 17.4023C97.9743 18.8834 98.9137 19.9633 100.312 19.9633C101.711 19.9633 102.651 18.8086 102.651 17.3718C102.651 15.9075 101.73 14.8124 100.331 14.8124ZM119.627 13.7919L116.827 20.9852H115.003L113.844 17.8614C113.556 17.0973 113.316 16.322 113.125 15.5384H113.087C112.941 16.3224 112.663 17.1079 112.369 17.8614L111.136 20.9852H109.293L106.659 13.7919H108.703L109.716 17.2116C109.955 18.0262 110.156 18.7949 110.323 19.5209H110.361C110.508 18.9154 110.747 18.1589 111.098 17.2269L112.369 13.7935H113.99L115.207 17.1537C115.501 17.9682 115.74 18.7674 115.926 19.5225H115.979C116.108 18.7827 116.311 17.9972 116.586 17.1537L117.674 13.7935L119.627 13.7919ZM129.932 20.9852H127.943V16.8547C127.943 15.5826 127.336 14.9451 126.138 14.9451C124.959 14.9451 124.149 15.7596 124.149 16.7068V20.9852H122.16V15.848C122.16 15.212 122.141 14.5302 122.086 13.7904H123.836L123.929 14.9008H123.984C124.519 14.1321 125.605 13.644 126.821 13.644C128.7 13.644 129.934 14.7986 129.934 16.6778L129.932 20.9852ZM135.416 20.9852H133.426V10.4912H135.416V20.9852ZM142.668 21.1484C140.055 21.1484 138.358 19.5789 138.358 17.4481C138.358 15.2272 140.089 13.644 142.814 13.644C145.393 13.644 147.124 15.1388 147.124 17.3306C147.126 19.5789 145.338 21.1484 142.668 21.1484ZM142.742 14.8124C141.305 14.8124 140.385 15.8923 140.385 17.4023C140.385 18.8834 141.326 19.9633 142.721 19.9633C144.122 19.9633 145.059 18.8086 145.059 17.3718C145.061 15.9075 144.143 14.8124 142.742 14.8124ZM154.966 20.9852L154.822 20.157H154.769C154.161 20.8235 153.275 21.1484 152.152 21.1484C150.548 21.1484 149.409 20.2455 149.409 19.0313C149.409 17.2559 151.324 16.3377 154.64 16.3377V16.205C154.64 15.2577 154.015 14.7834 152.782 14.7834C151.899 14.7834 151.125 14.9618 150.443 15.3172L150.039 14.2663C150.867 13.8514 151.899 13.644 153.112 13.644C155.45 13.644 156.63 14.6354 156.63 16.6198V19.2693C156.63 19.9953 156.67 20.5581 156.759 20.9867L154.966 20.9852ZM154.693 17.4023C152.484 17.4023 151.375 17.8324 151.375 18.8529C151.375 19.6079 151.947 19.977 152.74 19.977C153.751 19.977 154.693 19.3562 154.693 18.5127V17.4023ZM166.288 20.9852L166.195 19.8306H166.14C165.569 20.703 164.609 21.1484 163.267 21.1484C161.109 21.1484 159.511 19.6231 159.511 17.4771C159.511 15.2272 161.168 13.6425 163.43 13.6425C164.628 13.6425 165.476 13.9674 165.954 14.6202H165.994V10.4912H167.985V19.0466C167.985 19.7421 168.006 20.3934 168.059 20.9852H166.288ZM165.994 16.7525C165.994 15.7458 165.165 14.8871 163.899 14.8871C162.424 14.8871 161.523 15.938 161.523 17.4176C161.523 18.8681 162.459 19.8611 163.859 19.8611C165.11 19.8611 165.994 18.9871 165.994 17.9514V16.7525ZM180.608 21.1484C177.994 21.1484 176.299 19.5789 176.299 17.4481C176.299 15.2272 178.03 13.644 180.756 13.644C183.335 13.644 185.066 15.1388 185.066 17.3306C185.067 19.5789 183.282 21.1484 180.608 21.1484ZM180.682 14.8124C179.247 14.8124 178.326 15.8923 178.326 17.4023C178.326 18.8834 179.266 19.9633 180.663 19.9633C182.063 19.9633 183.001 18.8086 183.001 17.3718C183.004 15.9075 182.084 14.8124 180.682 14.8124ZM195.762 20.9852H193.771V16.8547C193.771 15.5826 193.164 14.9451 191.966 14.9451C190.787 14.9451 189.979 15.7596 189.979 16.7068V20.9852H187.988V15.848C187.988 15.212 187.969 14.5302 187.914 13.7904H189.664L189.757 14.9008H189.812C190.345 14.1321 191.433 13.6425 192.647 13.6425C194.526 13.6425 195.762 14.7971 195.762 16.6763V20.9852ZM209.143 14.9908H206.955V18.4837C206.955 19.373 207.338 19.8168 208.113 19.8168C208.464 19.8168 208.758 19.7863 208.995 19.7421L209.05 20.9562C208.665 21.0752 208.149 21.1347 207.507 21.1347C205.94 21.1347 205.002 20.4392 205.002 18.618V14.9908H203.696V13.7919H205.002V12.4741L206.955 11.9997V13.7904H209.143V14.9908ZM219.672 20.9852H217.685V16.8852C217.685 15.5979 217.08 14.9466 215.881 14.9466C214.85 14.9466 213.89 15.5094 213.89 16.6488V20.9852H211.903V10.4912H213.89V14.8124H213.93C214.556 14.0284 215.463 13.6425 216.621 13.6425C218.515 13.6425 219.672 14.8261 219.672 16.7068V20.9852ZM230.46 17.773H224.491C224.529 19.135 225.651 19.9038 227.311 19.9038C228.194 19.9038 229.006 19.7848 229.723 19.5637L230.033 20.6741C229.186 20.97 228.19 21.1179 227.03 21.1179C224.231 21.1179 222.574 19.6964 222.574 17.4923C222.574 15.2867 224.271 13.6287 226.806 13.6287C229.093 13.6287 230.528 14.9908 230.528 17.0484C230.541 17.2913 230.518 17.5345 230.46 17.773ZM228.636 16.6336C228.636 15.5232 227.939 14.7392 226.668 14.7392C225.525 14.7392 224.622 15.5384 224.493 16.6336H228.636Z" fill="#011432"/>
</svg>
