<svg width="257" height="69" viewBox="0 0 257 69" fill="none" xmlns="http://www.w3.org/2000/svg">
<path d="M10.8995 0.493164H246.101C251.838 0.493164 256.5 4.15156 256.5 8.65316V60.3332C256.5 64.8348 251.838 68.4932 246.101 68.4932H10.8995C5.16242 68.4932 0.5 64.8348 0.5 60.3332V8.65316C0.5 4.15156 5.16242 0.493164 10.8995 0.493164Z" fill="#FDFDFC"/>
<path d="M31.7331 24.9134C31.7331 24.9134 14.0714 17.2294 13.0314 16.7806C11.9915 16.3318 10.9515 16.6038 10.9515 17.5422V50.6582C10.9515 51.3654 11.6968 51.6646 12.5981 51.2838C13.4994 50.8894 31.7331 42.9606 31.7331 42.9606C31.7331 42.9606 34.2117 41.8862 35.4423 41.3422C37.4355 40.4718 41.422 38.7446 41.422 38.7446C41.422 38.7446 49.6549 35.1678 50.7468 34.6918C51.8387 34.2158 51.7348 33.563 50.8161 33.1958C49.8975 32.8286 41.4393 29.1158 41.4393 29.1158L31.7331 24.9134Z" fill="url(#paint0_linear_2436_5222)"/>
<path d="M34.9915 33.8892L11.766 16.6172C11.2287 16.7124 10.8994 17.0388 10.8994 17.5692V50.6172C10.8994 51.066 11.1247 51.338 11.4194 51.4332L34.9915 33.8892Z" fill="url(#paint1_linear_2436_5222)"/>
<mask id="mask0_2436_5222" style="mask-type:alpha" maskUnits="userSpaceOnUse" x="10" y="16" width="25" height="36">
<path d="M34.9915 33.8892L11.766 16.6172C11.2287 16.7124 10.8994 17.0388 10.8994 17.5692V50.6172C10.8994 51.066 11.1247 51.338 11.4194 51.4332L34.9915 33.8892Z" fill="white"/>
</mask>
<g mask="url(#mask0_2436_5222)">
<mask id="mask1_2436_5222" style="mask-type:alpha" maskUnits="userSpaceOnUse" x="11" y="33" width="31" height="19">
<path d="M12.3697 51.3394L25.8023 45.5458C29.1128 44.1042 31.73 42.9618 31.73 42.9618L41.4882 38.841L34.9885 33.8906L11.4164 51.4346C11.6764 51.5026 12.1443 51.4618 12.5083 51.3258" fill="white"/>
</mask>
<g mask="url(#mask1_2436_5222)">
<path d="M31.6954 24.9146C31.6607 24.9826 13.999 17.285 12.9764 16.8906C11.9364 16.3738 10.8965 16.6594 10.8965 17.5706V50.7546C10.8965 51.489 11.6418 51.7882 12.4564 51.4346C13.4444 50.9994 31.6607 43.0706 31.6954 43.0026L41.4016 38.7866C41.3496 38.841 49.5651 35.2642 50.5878 34.8426C51.7664 34.3122 51.645 33.6594 50.7611 33.3466C49.8078 32.9114 41.3496 29.1986 41.4016 29.1306L31.6954 24.9146Z" fill="url(#paint2_linear_2436_5222)"/>
</g>
<path d="M12.9932 16.7667C12.5425 16.5899 12.1092 16.5355 11.7452 16.6035L34.988 33.9027L41.4184 29.1291L31.7295 24.9131C31.7295 24.9131 22.5953 20.9419 17.0836 18.5483L12.9932 16.7667Z" fill="url(#paint3_linear_2436_5222)"/>
<mask id="mask2_2436_5222" style="mask-type:alpha" maskUnits="userSpaceOnUse" x="11" y="16" width="31" height="18">
<path d="M12.9932 16.7667C12.5425 16.5899 12.1092 16.5355 11.7452 16.6035L34.988 33.9027L41.4184 29.1291L31.7295 24.9131C31.7295 24.9131 22.5953 20.9419 17.0836 18.5483L12.9932 16.7667Z" fill="white"/>
</mask>
<g mask="url(#mask2_2436_5222)">
</g>
</g>
<path d="M175.835 47.944L173.911 49.372C173.46 49.5624 173.027 49.7936 172.594 49.9432C171.259 50.4192 169.907 50.5416 168.694 50.5416C167.411 50.5416 165.401 50.4736 163.355 49.304C160.513 47.7264 159.265 44.9928 159.265 42.6264C159.265 37.7168 164.326 35.3096 168.469 35.3096C169.907 35.3096 171.398 35.5952 172.594 36.1936C174.604 37.2408 175.124 38.6008 175.402 39.3352L165.973 42.3408L162.887 42.5312C163.893 46.5568 167.342 48.896 171.155 48.896C173.062 48.896 174.466 48.4064 175.765 47.9032C175.765 47.9032 176.025 47.7944 175.835 47.944ZM170.08 39.8656C170.843 39.648 171.224 39.4576 171.224 39.0088C171.224 37.7304 169.439 36.2616 167.29 36.2616C165.713 36.2616 162.732 37.2544 162.732 40.6952C162.732 41.2392 162.818 41.8104 162.853 42.3816L170.08 39.8656Z" fill="black"/>
<path d="M156.145 47.7667C156.145 48.9907 156.423 49.1811 157.74 49.2763C158.433 49.3443 159.109 49.3715 159.785 49.4259L158.312 50.1195H151.258C152.176 49.1675 152.349 49.0723 152.349 48.4467V47.7395L152.332 28.9715H149.212L152.211 27.8291H157.93C156.683 28.4003 156.319 28.7403 156.163 29.8419L156.145 47.7667Z" fill="black"/>
<path d="M145.209 36.8589C146.127 37.4573 148.034 38.7221 148.034 41.1157C148.034 43.4549 146.37 44.5565 144.689 45.6037C144.169 46.0117 143.562 46.4605 143.562 47.1541C143.562 47.8477 144.169 48.2285 144.602 48.5141L146.04 49.3981C147.791 50.5677 149.386 51.6421 149.386 53.8181C149.386 56.7829 145.746 59.7885 138.882 59.7885C133.093 59.7885 130.303 57.6125 130.303 55.2733C130.303 54.1309 131.013 52.5261 133.388 51.4245C135.866 50.2277 139.211 50.0645 141.014 49.9693C140.459 49.3981 139.818 48.7997 139.818 47.8205C139.818 47.2901 140.026 46.9637 140.217 46.5829C139.783 46.6101 139.333 46.6509 138.934 46.6509C134.705 46.6509 132.313 44.1485 132.313 41.6869C132.313 40.2317 133.145 38.6269 134.878 37.4573C137.149 35.9749 139.87 35.7165 142.019 35.7165H150.252L147.687 36.8589H145.209ZM142.401 50.8533C142.071 50.8125 141.881 50.8125 141.482 50.8125C141.118 50.8125 138.934 50.8805 137.253 51.3293C136.369 51.5877 133.786 52.3629 133.786 54.6477C133.786 56.9325 136.56 58.5781 140.875 58.5781C144.741 58.5781 146.786 57.0957 146.786 55.1101C146.786 53.4509 145.451 52.5805 142.401 50.8533ZM143.527 44.7605C144.446 44.0397 144.533 43.0333 144.533 42.4621C144.533 40.1909 142.834 36.6685 139.523 36.6685C138.501 36.6685 137.374 37.0765 136.733 37.7157C136.057 38.3685 135.866 39.2253 135.866 40.0413C135.866 42.1493 137.426 45.6445 140.841 45.6445C141.829 45.6445 142.903 45.2637 143.527 44.7605ZM120.319 50.5405C113.958 50.5405 110.561 46.5965 110.561 43.0333C110.561 38.8717 114.842 35.3085 120.926 35.3085C126.801 35.3085 130.493 38.9669 130.493 42.8157C130.493 46.5693 126.853 50.5405 120.319 50.5405ZM125.294 47.9701C126.264 46.9501 126.507 45.6717 126.507 44.4341C126.507 41.6189 124.826 36.2605 119.834 36.2605C118.517 36.2605 117.182 36.6685 116.211 37.3485C114.651 38.4637 114.357 39.8645 114.357 41.2381C114.357 44.3933 116.315 49.5885 121.186 49.5885C122.78 49.5885 124.375 48.9901 125.294 47.9701ZM99.0002 50.5405C92.6392 50.5405 89.2421 46.5965 89.2421 43.0333C89.2421 38.8717 93.5232 35.3085 99.6069 35.3085C105.483 35.3085 109.174 38.9669 109.174 42.8157C109.174 46.5693 105.535 50.5405 99.0002 50.5405ZM103.975 47.9701C104.945 46.9501 105.188 45.6717 105.188 44.4341C105.188 41.6189 103.489 36.2605 98.5149 36.2605C97.1803 36.2605 95.8631 36.6685 94.8924 37.3485C93.3152 38.4637 93.0379 39.8645 93.0379 41.2381C93.0379 44.3933 95.0138 49.5885 99.8669 49.5885C101.461 49.5885 103.056 48.9901 103.975 47.9701ZM86.6075 49.6021L81.2172 50.5813C79.0333 50.8533 77.0747 51.0981 74.9948 51.0981C64.5954 51.0845 60.6436 45.0461 60.6436 40.3133C60.6436 34.5469 66.2593 29.1885 75.8614 29.1885C77.8893 29.1885 79.8479 29.4197 81.6331 29.8141C84.4583 30.4397 85.7756 31.2149 86.6075 31.6637L83.4704 34.0165L82.1531 34.2477L83.0891 33.0645C81.8065 32.0853 79.4666 30.2629 75.0295 30.2629C69.0845 30.2629 64.5953 33.8261 64.5953 39.0349C64.5953 44.6245 69.7084 49.8877 77.924 49.8877C80.3332 49.8877 81.5811 49.5069 82.7077 49.1533V44.3525L77.0227 44.5973L80.0385 43.3189H88.0288L87.0582 44.0669C86.7982 44.2437 86.7635 44.2981 86.6769 44.5429C86.6422 44.8149 86.6075 45.6717 86.6075 45.9845V49.6021ZM187.465 48.0789V56.1165H185.437V35.6757H187.465V38.0013C188.782 36.4917 191.209 35.3085 193.999 35.3085C199.026 35.3085 202.423 38.3141 202.423 43.0605C202.423 47.7797 199.043 50.8397 193.999 50.8397C191.365 50.8397 188.99 49.7653 187.465 48.0789ZM200.343 43.1829C200.343 39.5653 197.968 36.8045 193.739 36.8045C191.122 36.8045 188.609 38.4365 187.517 39.8645V46.4741C188.609 47.9021 191.122 49.5885 193.739 49.5885C197.968 49.5885 200.343 46.8005 200.343 43.1829ZM205.196 30.0045H207.276V50.5405H205.196V30.0045ZM229.895 54.7021C230.328 54.8517 231.073 54.9469 231.541 54.9469C232.789 54.9469 233.639 54.5525 234.419 53.1381L235.892 50.4997L227.902 35.5805H230.172L237.018 48.5141L243.813 35.5805H246.101L236.36 53.6277C235.354 55.4909 233.76 56.3885 231.576 56.3885C230.917 56.3885 230.051 56.2933 229.548 56.1709L229.895 54.7021ZM224.158 50.5269C224.019 50.0101 223.915 49.5613 223.846 49.1805C223.776 48.7997 223.742 48.4189 223.742 48.0245C223.048 48.8269 222.061 49.5069 220.778 50.0373C219.513 50.5677 218.299 50.8261 216.653 50.8261C214.66 50.8261 213.117 50.4453 212.025 49.6565C210.933 48.8813 210.378 47.8205 210.378 46.4877C210.378 45.1549 211.176 44.0669 212.77 43.2373C214.365 42.4077 216.427 41.9861 218.975 41.9861H223.724V40.1365C223.724 39.0757 223.256 38.2325 222.338 37.6341C221.419 37.0221 220.119 36.7229 218.438 36.7229C216.895 36.7229 215.648 37.0085 214.694 37.5525C213.758 38.1101 213.273 38.8037 213.273 39.6333H211.193L211.158 39.5517C211.089 38.4229 211.73 37.4437 213.134 36.5869C214.521 35.7301 216.323 35.3085 218.559 35.3085C220.778 35.3085 222.58 35.7301 223.932 36.5733C225.284 37.4029 225.96 38.6133 225.96 40.1773V47.5213C225.96 48.0517 225.995 48.5549 226.082 49.0581C226.168 49.5613 226.307 50.0509 226.48 50.5269H224.158ZM216.913 49.4525C218.646 49.4525 219.894 49.1397 221.159 48.5413C222.424 47.9429 223.274 47.1541 223.724 46.2021V43.3325H218.941C217.121 43.3325 215.613 43.6453 214.417 44.2981C213.221 44.9373 212.632 45.7125 212.632 46.6237C212.632 47.4805 213.013 48.1605 213.776 48.6773C214.556 49.1941 215.596 49.4525 216.913 49.4525Z" fill="black"/>
<path d="M59.9502 16.1738C59.9502 13.2498 62.9314 11.3594 66.6405 11.3594C69.1191 11.3594 70.7483 12.2298 71.7709 13.2906L69.951 14.0522C69.2577 13.3586 68.0618 12.8146 66.6405 12.8146C64.1273 12.8146 62.2381 14.2154 62.2381 16.1738C62.2554 18.1186 64.1273 19.533 66.6405 19.533C67.9404 19.533 69.0844 19.0978 69.6564 18.6898V17.2618H65.8432V15.8202H71.8749V19.2882C70.627 20.3082 68.8417 20.9882 66.6405 20.9882C62.9314 21.0018 59.9502 19.0978 59.9502 16.1738ZM74.7694 20.8658V11.509H83.6263V12.9506H77.04V15.3578H83.4876V16.813H77.04V19.4242H83.6263V20.8658H74.7694ZM89.6407 20.8658V12.9506H85.7929V11.509H95.7243V12.9506H91.8765V20.8658H89.6407ZM103.68 11.509H105.846V20.8658H103.68V11.509ZM112.051 20.8658V12.9506H108.204V11.509H118.135V12.9506H114.287V20.8658H112.051ZM125.553 16.1874C125.553 13.413 128.275 11.373 132.157 11.373C136.005 11.373 138.743 13.413 138.743 16.1874C138.743 18.9618 135.988 21.0018 132.157 21.0018C128.275 21.0018 125.553 18.9618 125.553 16.1874ZM136.386 16.1058C136.386 14.2018 134.722 12.7738 132.14 12.7738C129.54 12.7738 127.893 14.2018 127.893 16.1058C127.893 17.9962 129.54 19.4378 132.14 19.4378C134.722 19.4378 136.386 18.0098 136.386 16.1058ZM150.131 20.8658L143.493 14.1746V20.8658H141.257V11.509H143.545L150.044 17.9962V11.509H152.28V20.8658H150.131Z" fill="black"/>
<defs>
<linearGradient id="paint0_linear_2436_5222" x1="20.5321" y1="27.5804" x2="30.8518" y2="46.8806" gradientUnits="userSpaceOnUse">
<stop stop-color="#FF177B"/>
<stop offset="1" stop-color="#FFEC73"/>
</linearGradient>
<linearGradient id="paint1_linear_2436_5222" x1="26.7969" y1="3.85168" x2="9.29924" y2="51.207" gradientUnits="userSpaceOnUse">
<stop stop-color="#064AA2"/>
<stop offset="1" stop-color="#63FFD4"/>
</linearGradient>
<linearGradient id="paint2_linear_2436_5222" x1="34.8" y1="23.6296" x2="6.85907" y2="44.9318" gradientUnits="userSpaceOnUse">
<stop stop-color="#FF4521"/>
<stop offset="1" stop-color="#8A33DB"/>
</linearGradient>
<linearGradient id="paint3_linear_2436_5222" x1="16.1401" y1="11.0604" x2="23.6862" y2="36.058" gradientUnits="userSpaceOnUse">
<stop stop-color="#00A3B5"/>
<stop offset="1" stop-color="#D6FFA1"/>
</linearGradient>
</defs>
</svg>
