<svg width="100" height="101" viewBox="0 0 100 101" fill="none" xmlns="http://www.w3.org/2000/svg">
<g clip-path="url(#clip0_2433_3993)">
<path d="M49.375 96.8265L9.68749 57.139L41.25 25.5765L56.4583 40.7848L60.8333 36.4098L35.8333 11.4098L4.27082 42.9723L11.875 50.5765L7.49999 54.9515L-4.58334 42.8682L35.7291 2.55566L48.6458 15.4723L61.5625 2.55566L102.604 43.5973L49.375 96.8265ZM49.4791 88.0765L93.75 43.5973L61.5625 11.4098L53.125 19.8473L69.6875 36.4098L56.4583 49.639L41.25 34.4307L18.5416 57.139L22.9166 61.514L39.8958 44.5348L44.375 49.014L27.3958 65.9932L31.875 70.4723L48.8541 53.4932L53.2291 57.8682L36.25 74.8473L40.5208 79.1182L57.5 62.139L61.9791 66.6182L45 83.5973L49.4791 88.0765Z" fill="#333333"/>
</g>
<defs>
<clipPath id="clip0_2433_3993">
<rect width="100" height="100" fill="white" transform="translate(0 0.993164)"/>
</clipPath>
</defs>
</svg>
