<svg width="39" height="39" viewBox="0 0 39 39" fill="none" xmlns="http://www.w3.org/2000/svg">
<path d="M27.0785 0.743164H11.9215C5.76149 0.743164 0.75 5.75465 0.75 11.9146V27.0717C0.75 33.2317 5.76149 38.2432 11.9215 38.2432H27.0785C33.2385 38.2432 38.25 33.2317 38.25 27.0717V11.9146C38.2499 5.75465 33.2384 0.743164 27.0785 0.743164ZM34.4775 27.0717C34.4775 31.158 31.1648 34.4707 27.0785 34.4707H11.9215C7.83516 34.4707 4.5225 31.158 4.5225 27.0717V11.9146C4.5225 7.82825 7.83516 4.51566 11.9215 4.51566H27.0785C31.1648 4.51566 34.4775 7.82825 34.4775 11.9146V27.0717Z" fill="#011432"/>
<path d="M19.5 9.79395C14.152 9.79395 9.80115 14.1448 9.80115 19.4927C9.80115 24.8406 14.152 29.1915 19.5 29.1915C24.8479 29.1915 29.1988 24.8407 29.1988 19.4927C29.1988 14.1448 24.8479 9.79395 19.5 9.79395ZM19.5 25.4191C16.2269 25.4191 13.5736 22.7658 13.5736 19.4928C13.5736 16.2197 16.227 13.5664 19.5 13.5664C22.773 13.5664 25.4263 16.2197 25.4263 19.4928C25.4263 22.7658 22.773 25.4191 19.5 25.4191Z" fill="#011432"/>
<path d="M29.2175 12.191C30.501 12.191 31.5415 11.1505 31.5415 9.86701C31.5415 8.58348 30.501 7.54297 29.2175 7.54297C27.9339 7.54297 26.8934 8.58348 26.8934 9.86701C26.8934 11.1505 27.9339 12.191 29.2175 12.191Z" fill="#011432"/>
</svg>
