<svg width="100" height="101" viewBox="0 0 100 101" fill="none" xmlns="http://www.w3.org/2000/svg">
<path d="M49.2658 20.9932C38.7852 20.9932 30.2318 29.2968 30.2318 39.549C30.2318 44.6168 32.3255 49.1992 35.7041 52.5469L30.0367 75.0832C29.9792 75.3089 29.9892 75.5466 30.0656 75.7667C30.142 75.9868 30.2813 76.1797 30.4662 76.3213C30.6512 76.4629 30.8737 76.5471 31.1061 76.5635C31.3385 76.5798 31.5706 76.5276 31.7735 76.4132L38.7828 72.4731L42.8942 79.4063C43.0141 79.6098 43.1918 79.773 43.4048 79.8752C43.6178 79.9773 43.8564 80.0137 44.0901 79.9798C44.3239 79.9458 44.5422 79.8431 44.7174 79.6846C44.8925 79.5261 45.0165 79.3191 45.0736 79.0898L49.1492 62.899L53.2249 79.0898C53.282 79.3191 53.406 79.5261 53.5811 79.6846C53.7563 79.8431 53.9746 79.9458 54.2084 79.9798C54.4421 80.0137 54.6807 79.9773 54.8937 79.8752C55.1067 79.773 55.2844 79.6098 55.4043 79.4063L59.5157 72.4731L66.525 76.4132C66.7279 76.5276 66.96 76.5798 67.1924 76.5635C67.4248 76.5471 67.6473 76.4629 67.8322 76.3213C68.0172 76.1797 68.1565 75.9868 68.2329 75.7667C68.3093 75.5466 68.3193 75.3089 68.2618 75.0832L62.6396 52.7324C66.13 49.3706 68.2999 44.7096 68.2999 39.549C68.2999 29.2968 59.7465 20.9932 49.2658 20.9932V20.9932ZM49.2658 23.3724C58.495 23.3724 65.9206 30.6196 65.9206 39.549C65.9206 48.4783 58.495 55.7255 49.2658 55.7255C40.0343 55.7255 32.611 48.4783 32.611 39.5466C32.611 30.6196 40.0343 23.3724 49.2658 23.3724V23.3724ZM49.1944 32.0448C49.0127 32.0549 48.8357 32.1049 48.6766 32.1911C48.5176 32.2772 48.3806 32.3972 48.2761 32.5421L45.8183 35.9349L41.7331 37.1674C41.5494 37.2232 41.3822 37.321 41.2453 37.4525C41.1085 37.5841 41.0059 37.7455 40.9463 37.9234C40.8867 38.1014 40.8717 38.2906 40.9026 38.4752C40.9336 38.6599 41.0095 38.8348 41.124 38.9851L43.6793 42.3161L43.6199 46.4702C43.6181 46.6284 43.6493 46.7853 43.7116 46.9315C43.7738 47.0777 43.8658 47.2101 43.9821 47.3208C44.0983 47.4315 44.2364 47.5182 44.388 47.5756C44.5396 47.6331 44.7016 47.6601 44.8642 47.6551C44.985 47.6511 45.1045 47.6294 45.2187 47.5909L49.2634 46.2514L53.3082 47.5909C53.4908 47.652 53.6858 47.6696 53.8769 47.6422C54.068 47.6148 54.2495 47.5431 54.4062 47.4333C54.5628 47.3235 54.6901 47.1787 54.7773 47.0111C54.8644 46.8435 54.9089 46.658 54.907 46.4702L54.8499 42.3161L57.4076 38.9851C57.5221 38.8344 57.5979 38.6593 57.6285 38.4744C57.6591 38.2894 57.6437 38.1 57.5836 37.922C57.5235 37.7441 57.4204 37.5827 57.283 37.4514C57.1456 37.3201 56.9778 37.2227 56.7938 37.1674L52.7134 35.9349L50.2508 32.5397C50.1334 32.3761 49.9749 32.2444 49.7905 32.157C49.606 32.0695 49.4017 32.0293 49.1968 32.0401L49.1944 32.0448ZM49.2658 35.2497L50.9789 37.6099C51.1317 37.8224 51.3526 37.9797 51.607 38.0572L54.4526 38.9161L52.6682 41.2311C52.5089 41.4367 52.4237 41.6875 52.4255 41.9449L52.4731 44.8357L49.656 43.9078C49.4031 43.8237 49.1286 43.8237 48.8756 43.9078L46.0586 44.8357L46.1062 41.9473C46.1072 41.6886 46.0202 41.4368 45.8587 41.2311L44.0743 38.9161L46.9223 38.0572C47.175 37.9788 47.3941 37.8216 47.5456 37.6099L49.2658 35.2497V35.2497ZM37.7264 54.2694C40.6901 56.4789 44.2285 57.7859 47.9168 58.0334L43.47 75.7065L40.2342 70.2604C40.0762 69.994 39.8205 69.7997 39.5215 69.7188C39.2224 69.6379 38.9037 69.6769 38.6329 69.8274L33.0179 72.9847L37.7288 54.2694H37.7264ZM60.6077 54.4122L65.283 72.9847L59.6656 69.8274C59.3946 69.6762 59.0752 69.6368 58.7757 69.7177C58.4761 69.7986 58.22 69.9934 58.0619 70.2604L54.8261 75.7089L50.3865 58.0477C54.0718 57.8438 57.6204 56.5824 60.6077 54.4146V54.4122Z" fill="#333333"/>
</svg>
