<svg width="33" height="33" viewBox="0 0 33 33" fill="none" xmlns="http://www.w3.org/2000/svg">
<path d="M30.2297 24.0664C25.2743 21.6668 24.4845 17.962 24.4494 17.6873C24.4069 17.3544 24.3586 17.0927 24.7257 16.7541C25.0797 16.427 26.6503 15.4546 27.0861 15.1503C27.8064 14.6466 28.1236 14.1436 27.8898 13.5253C27.7263 13.0976 27.3281 12.9365 26.9087 12.9365C26.7764 12.9369 26.6445 12.9517 26.5154 12.9806C25.724 13.1524 24.9555 13.549 24.5107 13.6562C24.4572 13.6699 24.4024 13.6774 24.3472 13.6782C24.1101 13.6782 24.0201 13.5727 24.043 13.2873C24.0986 12.422 24.2164 10.7332 24.0798 9.15562C23.8926 6.98509 23.1927 5.90963 22.3629 4.95849C21.9614 4.49724 20.0973 2.51562 16.4999 2.51562C12.9026 2.51562 11.0409 4.49724 10.6419 4.95277C9.80961 5.90391 9.11057 6.97936 8.92498 9.14989C8.78844 10.7275 8.91108 12.4155 8.96177 13.2816C8.97812 13.5531 8.89473 13.6725 8.65763 13.6725C8.60245 13.6716 8.54757 13.6642 8.49411 13.6504C8.05016 13.5433 7.28163 13.1466 6.4902 12.9749C6.3611 12.9459 6.22924 12.9311 6.09694 12.9307C5.67588 12.9307 5.27935 13.0943 5.11583 13.5196C4.882 14.1379 5.19759 14.6408 5.92034 15.1446C6.35611 15.4488 7.9267 16.4204 8.28072 16.7484C8.647 17.087 8.59958 17.3487 8.55707 17.6815C8.52191 17.9604 7.7313 21.6652 2.77671 24.0606C2.48647 24.2013 1.99264 24.499 2.86337 24.9799C4.23038 25.7356 5.14036 25.6546 5.84757 26.1101C6.44768 26.497 6.09285 27.3311 6.52944 27.6321C7.06578 28.0026 8.65109 27.6059 10.6991 28.2823C12.4161 28.8482 13.4593 30.4471 16.504 30.4471C19.5487 30.4471 20.6222 28.8409 22.3089 28.2823C24.3529 27.6059 25.9415 28.0026 26.4786 27.6321C26.9144 27.3311 26.5604 26.497 27.1605 26.1101C27.8677 25.6546 28.7769 25.7356 30.1447 24.9799C31.0138 24.5047 30.52 24.207 30.2297 24.0664Z" fill="white"/>
<path d="M32.3855 23.7836C32.1631 23.1784 31.7396 22.8545 31.2572 22.5863C31.1665 22.5331 31.0831 22.4906 31.0119 22.4579C30.868 22.3835 30.7209 22.3115 30.5745 22.2354C29.071 21.438 27.8969 20.4321 27.0826 19.2397C26.8513 18.904 26.6508 18.5482 26.4833 18.1765C26.4138 17.9778 26.4171 17.8649 26.4669 17.7619C26.5164 17.6825 26.5818 17.6143 26.6591 17.5615C26.9174 17.3906 27.184 17.2172 27.3647 17.1003C27.6868 16.8917 27.9419 16.7265 28.1062 16.6096C28.7235 16.1777 29.1552 15.7189 29.425 15.2061C29.6132 14.8519 29.723 14.4612 29.7468 14.0607C29.7707 13.6602 29.708 13.2593 29.5632 12.8851C29.1544 11.8089 28.1381 11.1407 26.9068 11.1407C26.6471 11.1405 26.3881 11.1679 26.1342 11.2225C26.0663 11.2372 25.9985 11.2527 25.9322 11.2699C25.9437 10.5339 25.9273 9.75692 25.8619 8.99225C25.6297 6.30403 24.6887 4.8949 23.7076 3.7712C23.0793 3.06704 22.3393 2.4713 21.5173 2.00795C20.0284 1.1574 18.3401 0.725586 16.4997 0.725586C14.6593 0.725586 12.9792 1.1574 11.4887 2.00795C10.6647 2.47144 9.92316 3.06837 9.2943 3.77447C8.3132 4.89817 7.37215 6.30975 7.13996 8.99552C7.07455 9.76019 7.0582 10.5412 7.06883 11.2732C7.0026 11.256 6.93556 11.2405 6.8677 11.2258C6.61379 11.1711 6.35479 11.1437 6.09508 11.144C4.86297 11.144 3.84507 11.8121 3.43791 12.8884C3.29238 13.2627 3.2291 13.6639 3.25238 14.0648C3.27565 14.4658 3.38494 14.857 3.57281 15.2119C3.84344 15.7247 4.27512 16.1835 4.8924 16.6153C5.05592 16.7298 5.31183 16.895 5.63396 17.106C5.8081 17.2188 6.06237 17.384 6.31174 17.5492C6.39898 17.6057 6.47314 17.6801 6.52922 17.7676C6.58154 17.8747 6.58318 17.9901 6.50551 18.2027C6.3403 18.5665 6.14303 18.915 5.91603 19.2438C5.11969 20.4092 3.97997 21.3971 2.52466 22.188C1.75368 22.5969 0.952441 22.8701 0.613959 23.7901C0.358871 24.4845 0.525659 25.2745 1.17401 25.9402C1.41196 26.1887 1.68794 26.3977 1.9916 26.5593C2.62342 26.9066 3.29527 27.1755 3.99224 27.36C4.13607 27.3971 4.27261 27.4582 4.39613 27.5407C4.63241 27.7476 4.59889 28.0592 4.91366 28.5156C5.07167 28.7514 5.27244 28.9556 5.5056 29.1175C6.16621 29.5738 6.90858 29.6025 7.6951 29.6327C8.40558 29.6597 9.21091 29.6908 10.1307 29.9942C10.5117 30.1202 10.9074 30.3639 11.3661 30.6485C12.4674 31.3256 13.975 32.2523 16.4981 32.2523C19.0212 32.2523 20.5394 31.3207 21.6489 30.6411C22.1043 30.3614 22.4976 30.1202 22.8679 29.9975C23.7877 29.6932 24.593 29.663 25.3035 29.636C26.09 29.6057 26.8324 29.5771 27.493 29.1208C27.7691 28.9282 27.9992 28.6768 28.1667 28.3847C28.3932 27.9995 28.3875 27.7304 28.6 27.5423C28.7159 27.4638 28.8441 27.4051 28.9794 27.369C29.6859 27.1839 30.3669 26.9126 31.007 26.5609C31.3296 26.3878 31.62 26.1604 31.8655 25.8887L31.8737 25.8789C32.482 25.2279 32.6348 24.4608 32.3855 23.7836ZM30.1428 24.9891C28.775 25.7448 27.8658 25.6638 27.1586 26.1193C26.5577 26.5062 26.9134 27.3403 26.4768 27.6413C25.9404 28.0118 24.3551 27.6151 22.3071 28.2915C20.6179 28.8501 19.5403 30.4563 16.5022 30.4563C13.464 30.4563 12.4118 28.8533 10.6948 28.2874C8.65086 27.611 7.06229 28.0077 6.52513 27.6372C6.08935 27.3363 6.44337 26.5021 5.84326 26.1152C5.13523 25.6597 4.22607 25.7407 2.85906 24.9891C1.98833 24.5082 2.48215 24.2105 2.77239 24.0698C7.72698 21.6703 8.51759 17.9655 8.55275 17.6907C8.59527 17.3579 8.64268 17.0962 8.2764 16.7576C7.92239 16.4304 6.3518 15.458 5.91603 15.1538C5.19491 14.65 4.87769 14.1471 5.11152 13.5288C5.27503 13.101 5.67402 12.9399 6.09262 12.9399C6.22492 12.9403 6.35679 12.9551 6.48588 12.9841C7.27731 13.1558 8.04585 13.5525 8.4898 13.6596C8.54325 13.6733 8.59813 13.6808 8.65331 13.6817C8.89042 13.6817 8.97381 13.5623 8.95746 13.2908C8.90677 12.4247 8.78413 10.7367 8.92067 9.15909C9.10789 6.98856 9.80693 5.91311 10.6376 4.96196C11.0366 4.5048 12.9113 2.52318 16.4964 2.52318C20.0816 2.52318 21.9612 4.49662 22.3602 4.95215C23.1917 5.90329 23.8915 6.97874 24.0771 9.14927C24.2137 10.7269 24.0959 12.4157 24.0403 13.281C24.0215 13.5664 24.1074 13.6719 24.3445 13.6719C24.3997 13.671 24.4546 13.6636 24.508 13.6498C24.9528 13.5427 25.7213 13.146 26.5127 12.9743C26.6418 12.9453 26.7737 12.9305 26.906 12.9301C27.3271 12.9301 27.7236 13.0937 27.8871 13.519C28.1209 14.1372 27.8053 14.6402 27.0834 15.144C26.6476 15.4482 25.077 16.4198 24.723 16.7478C24.3559 17.0863 24.4042 17.3481 24.4467 17.6809C24.4818 17.9598 25.2716 21.6646 30.227 24.06C30.5197 24.2064 31.0136 24.5041 30.1428 24.9891Z" fill="#011432"/>
</svg>
