<svg width="64" height="85" viewBox="0 0 64 85" fill="none" xmlns="http://www.w3.org/2000/svg">
<path d="M56 28.9932H52V20.9932C52 9.95316 43.04 0.993164 32 0.993164C20.96 0.993164 12 9.95316 12 20.9932V28.9932H8C3.6 28.9932 0 32.5932 0 36.9932V76.9932C0 81.3932 3.6 84.9932 8 84.9932H56C60.4 84.9932 64 81.3932 64 76.9932V36.9932C64 32.5932 60.4 28.9932 56 28.9932ZM20 20.9932C20 14.3532 25.36 8.99316 32 8.99316C38.64 8.99316 44 14.3532 44 20.9932V28.9932H20V20.9932ZM56 76.9932H8V36.9932H56V76.9932ZM32 64.9932C36.4 64.9932 40 61.3932 40 56.9932C40 52.5932 36.4 48.9932 32 48.9932C27.6 48.9932 24 52.5932 24 56.9932C24 61.3932 27.6 64.9932 32 64.9932Z" fill="#333333"/>
</svg>
